<svg width="72" height="72" viewBox="0 0 72 72" fill="none" xmlns="http://www.w3.org/2000/svg">
<path d="M72.0001 27.2266V20.9823L57.4287 10.2852L0 37.2209V41.3909L57.4287 17.1423L72.0001 27.2266Z" fill="#8AA6B7"/>
<path d="M72.0001 51.1247V44.8761L57.4287 36.5146L0 53.1733V57.3433L57.4287 43.3718L72.0001 51.1247Z" fill="#8AA6B7"/>
<path d="M72.0001 57.0558L57.4287 49.8857L0 61.3029V65.4729L57.4287 56.7429L72.0001 63.3043V57.0558Z" fill="#8AA6B7"/>
<path d="M72.0001 39.0983V32.8497L57.4287 23.314L0 45.1454V49.3154L57.4287 30.1711L72.0001 39.0983Z" fill="#8AA6B7"/>
<path d="M72.0001 15.5143V0H0V33.5701L57.4287 4.28572L72.0001 15.5143Z" fill="#8AA6B7"/>
<path d="M57.4287 63.4287L0 69.5401V72.0002H72.0001V69.3944L57.4287 63.4287Z" fill="#8AA6B7"/>
<path d="M57.4287 10.2861L72.0002 20.9833V15.5147L57.4287 4.28613V10.2861Z" fill="#E9EED8"/>
<path d="M57.4287 23.3145L72.0002 32.8502V27.2274L57.4287 17.1431V23.3145Z" fill="#E9EED8"/>
<path d="M57.4287 36.5138L72.0002 44.8752V39.0981L57.4287 30.1709V36.5138Z" fill="#E9EED8"/>
<path d="M57.4287 49.8854L72.0002 57.0554V51.124L57.4287 43.3711V49.8854Z" fill="#E9EED8"/>
<path d="M57.4287 56.7432V63.4289L72.0002 69.3946V63.3046L57.4287 56.7432Z" fill="#E9EED8"/>
<path d="M57.4287 10.2861V4.28613L0 33.5705V37.2219L57.4287 10.2861Z" fill="#343440"/>
<path d="M57.4287 17.1431L0 41.3917V45.146L57.4287 23.3145V17.1431Z" fill="#343440"/>
<path d="M57.4287 30.1709L0 49.3152V53.1724L57.4287 36.5138V30.1709Z" fill="#343440"/>
<path d="M57.4287 43.3711L0 57.3426V61.3026L57.4287 49.8854V43.3711Z" fill="#343440"/>
<path d="M57.4287 56.7432L0 65.4732V69.5403L57.4287 63.4289V56.7432Z" fill="#343440"/>
</svg>
