<svg width="24" height="23" viewBox="0 0 24 23" fill="none" xmlns="http://www.w3.org/2000/svg">
<g opacity="0.5">
<path d="M19.2002 7.73879C19.2002 5.98965 17.7741 4.56351 16.0249 4.56351H8.4272C6.67808 4.56351 5.25195 5.98965 5.25195 7.73879V15.3366C5.25195 17.0857 6.67808 18.5119 8.4272 18.5119H16.0249C17.7741 18.5119 19.2002 17.0857 19.2002 15.3366V7.73879ZM12.2286 15.908C9.81855 15.908 7.86073 13.9502 7.86073 11.5402C7.86073 9.13014 9.81855 7.1723 12.2286 7.1723C14.6386 7.1723 16.5964 9.13014 16.5964 11.5402C16.5964 13.9452 14.6386 15.908 12.2286 15.908ZM17.5604 7.77854C17.3567 7.98227 17.0685 8.10153 16.7802 8.10153C16.492 8.10153 16.2038 7.98227 16.0001 7.77854C15.7964 7.5748 15.6771 7.28659 15.6771 6.99838C15.6771 6.70521 15.7964 6.42197 16.0001 6.21823C16.2038 6.0145 16.492 5.89524 16.7802 5.89524C17.0734 5.89524 17.3567 6.0145 17.5604 6.21823C17.7641 6.42197 17.8834 6.71018 17.8834 6.99838C17.8834 7.28659 17.7641 7.56983 17.5604 7.77854Z" fill="white"/>
<path d="M12.2283 8.67269C10.6481 8.67269 9.36108 9.9597 9.36108 11.5399C9.36108 13.1201 10.6481 14.4071 12.2283 14.4071C13.8085 14.4071 15.0955 13.1201 15.0955 11.5399C15.0905 9.9597 13.8085 8.67269 12.2283 8.67269Z" fill="white"/>
<path d="M19.5728 0.205566H4.87911C2.68276 0.205566 0.903809 1.98451 0.903809 4.18087V18.8746C0.903809 21.0709 2.68276 22.8499 4.87911 22.8499H19.5728C21.7692 22.8499 23.5481 21.0709 23.5481 18.8746V4.18087C23.5481 1.98451 21.7692 0.205566 19.5728 0.205566ZM20.7058 15.3366C20.7058 17.9155 18.6088 20.0175 16.0249 20.0175H8.42707C5.84809 20.0175 3.74615 17.9205 3.74615 15.3366V7.73877C3.74615 5.15979 5.84312 3.05785 8.42707 3.05785H16.0249C18.6038 3.05785 20.7058 5.15482 20.7058 7.73877V15.3366Z" fill="white"/>
</g>
</svg>
