<svg width="20" height="18" viewBox="0 0 20 18" fill="none" xmlns="http://www.w3.org/2000/svg">
<path opacity="0.5" d="M19.6796 2.83194C19.236 3.03112 18.7729 3.19046 18.3001 3.30499C18.8217 2.79708 19.2116 2.16468 19.4359 1.4576C19.4992 1.25344 19.2848 1.07915 19.1044 1.1887C18.4463 1.58706 17.7395 1.88583 16.9986 2.08003C16.9547 2.08999 16.9108 2.09497 16.8669 2.09497C16.7305 2.09497 16.5988 2.04518 16.4965 1.95057C15.7068 1.24348 14.6977 0.850098 13.6448 0.850098C13.1915 0.850098 12.7284 0.92479 12.2799 1.06422C10.8809 1.50739 9.8036 2.68255 9.46725 4.13656C9.34051 4.67933 9.30639 5.22707 9.36489 5.75988C9.36976 5.81963 9.34539 5.86445 9.32589 5.88437C9.29664 5.91922 9.25277 5.93914 9.2089 5.93914C9.20403 5.93914 9.19915 5.93914 9.19428 5.93914C6.13301 5.65033 3.37397 4.14154 1.42412 1.70159C1.32662 1.5771 1.13164 1.59204 1.05365 1.73147C0.673424 2.39872 0.46869 3.16556 0.46869 3.94734C0.46869 5.14242 0.936654 6.26779 1.75559 7.08443C1.41437 6.99977 1.08289 6.87031 0.770917 6.69603C0.619803 6.61137 0.439442 6.72092 0.434567 6.89521C0.415069 8.66791 1.42899 10.2464 2.94988 10.9585C2.92063 10.9585 2.88651 10.9585 2.85726 10.9585C2.61353 10.9585 2.3698 10.9336 2.13094 10.8888C1.9652 10.8539 1.82384 11.0182 1.87258 11.1875C2.36492 12.766 3.69569 13.9263 5.28482 14.1902C3.9638 15.0964 2.42829 15.5745 0.829412 15.5745H0.3322C0.176212 15.5745 0.0494714 15.679 0.0104744 15.8284C-0.0285226 15.9778 0.0445968 16.1371 0.176212 16.2118C1.97982 17.2824 4.03204 17.8501 6.12326 17.8501C7.95125 17.8501 9.65737 17.4816 11.2026 16.7496C12.6163 16.0824 13.869 15.1213 14.922 13.9063C15.9018 12.771 16.6671 11.4614 17.1984 10.0124C17.7054 8.63305 17.9735 7.15912 17.9735 5.74992V5.68519C17.9735 5.46111 18.0758 5.24699 18.2465 5.10259C18.9094 4.55484 19.4846 3.90751 19.9623 3.1805C20.0842 2.97634 19.8892 2.73733 19.6796 2.83194Z" fill="white"/>
</svg>
