<svg width="110" height="21" viewBox="0 0 110 21" fill="currentColor" xmlns="http://www.w3.org/2000/svg">
<title>Craft Contracting</title>
<path d="M19.7369 8.20742C20.0952 8.20742 20.258 8.01201 20.258 7.78402C20.258 3.9083 16.708 0 10.5198 0C4.62482 0 0 4.10371 0 10.0964C0 16.1217 4.62482 20.1929 10.5198 20.1929C16.3171 20.1929 20.258 16.9685 20.258 12.7671C20.258 12.4414 19.9649 12.2786 19.7043 12.2786H16.4474C16.0566 12.2786 15.8937 12.4088 15.8286 12.8322C15.4703 15.0144 13.4836 16.48 10.5198 16.48C7.03493 16.48 4.4294 13.8744 4.4294 10.0964C4.4294 6.28584 7.16521 3.71288 10.5198 3.71288C13.4511 3.71288 15.5029 5.43904 15.8286 7.68631C15.8937 8.07714 16.0566 8.20742 16.3823 8.20742H19.7369Z"/>
<path d="M25.1808 19.4763C25.1808 19.6718 25.3762 19.8672 25.5716 19.8672H29.2193C29.4148 19.8672 29.6102 19.6718 29.6102 19.4763V13.7442H33.8116L37.785 19.5415C37.9153 19.7369 38.1433 19.8672 38.3061 19.8672H42.6378C42.8333 19.8672 42.8984 19.7695 42.8984 19.6392C42.8984 19.574 42.8658 19.4438 42.703 19.2158L39.4135 14.3956C38.9575 13.7116 38.3713 13.0928 38.3713 13.0928V13.0277C40.9768 12.1157 42.7681 10.129 42.7681 7.16521C42.7681 2.89865 39.3809 0.325691 34.6258 0.325691H25.5716C25.3762 0.325691 25.1808 0.521105 25.1808 0.716521V19.4763ZM34.3327 4.03857C36.7754 4.03857 38.3387 5.24363 38.3387 7.16521C38.3387 9.08679 36.7754 10.2267 34.3327 10.2267H29.6102V4.03857H34.3327Z"/>
<path d="M62.9396 19.4438C63.135 19.8346 63.2327 19.8672 63.6236 19.8672H67.4993C67.6947 19.8672 67.7598 19.7369 67.7598 19.6392C67.7598 19.5415 67.6947 19.3786 67.6296 19.2484L58.4451 0.325691H55.0579L45.8734 19.2484C45.8082 19.3786 45.7431 19.5415 45.7431 19.6392C45.7431 19.7369 45.8082 19.8672 46.0037 19.8672H49.8794C50.2702 19.8672 50.3679 19.8346 50.5633 19.4438L51.9638 16.48H61.474L62.9396 19.4438ZM55.2859 9.41248C55.9698 8.01201 56.6538 5.92758 56.6538 5.92758H56.8492C56.8492 5.92758 57.5331 8.01201 58.2171 9.41248L59.9758 13.0277H53.5271L55.2859 9.41248Z"/>
<path d="M75.7487 19.8672C75.9441 19.8672 76.1395 19.6718 76.1395 19.4763V12.6368H85.6497C85.8451 12.6368 86.1057 12.3763 86.1057 12.1809V9.37991C86.1057 9.18449 85.8451 8.92394 85.6497 8.92394H76.1395V4.03857H86.7571C86.9525 4.03857 87.213 3.77802 87.213 3.5826V0.781659C87.213 0.586245 86.9525 0.325691 86.7571 0.325691H72.1009C71.9055 0.325691 71.7101 0.521105 71.7101 0.716521V19.4763C71.7101 19.6718 71.9055 19.8672 72.1009 19.8672H75.7487Z"/>
<path d="M98.0797 4.03857V19.4763C98.0797 19.6718 98.2751 19.8672 98.4705 19.8672H102.118C102.314 19.8672 102.509 19.6718 102.509 19.4763V4.03857H109.544C109.739 4.03857 110 3.77802 110 3.5826V0.781659C110 0.586245 109.739 0.325691 109.544 0.325691H91.0448C90.8493 0.325691 90.5888 0.586245 90.5888 0.781659V3.5826C90.5888 3.77802 90.8493 4.03857 91.0448 4.03857H98.0797Z"/>
</svg>
